<svg id="wave" style="transform:rotate(0deg); transition: 0.3s" viewBox="0 0 1440 200" version="1.1" xmlns="http://www.w3.org/2000/svg">
  <defs>
    <linearGradient id="sw-gradient-0" x1="0" x2="0" y1="1" y2="0">
      <stop stop-color="rgba(226, 232, 240, 1)" offset="0%"></stop>
      <stop stop-color="rgba(226, 232, 240, 0.31)" offset="100%"></stop>
    </linearGradient>
  </defs>
  <path style="transform:translate(0, 0px); opacity:1" fill="url(#sw-gradient-0)" d="M0,140L48,143.3C96,147,192,153,288,160C384,167,480,173,576,160C672,147,768,113,864,110C960,107,1056,133,1152,130C1248,127,1344,93,1440,70C1536,47,1632,33,1728,40C1824,47,1920,73,2016,70C2112,67,2208,33,2304,36.7C2400,40,2496,80,2592,103.3C2688,127,2784,133,2880,143.3C2976,153,3072,167,3168,156.7C3264,147,3360,113,3456,96.7C3552,80,3648,80,3744,66.7C3840,53,3936,27,4032,13.3C4128,0,4224,0,4320,13.3C4416,27,4512,53,4608,80C4704,107,4800,133,4896,143.3C4992,153,5088,147,5184,126.7C5280,107,5376,73,5472,53.3C5568,33,5664,27,5760,46.7C5856,67,5952,113,6048,123.3C6144,133,6240,107,6336,83.3C6432,60,6528,40,6624,46.7C6720,53,6816,87,6864,103.3L6912,120L6912,200L6864,200C6816,200,6720,200,6624,200C6528,200,6432,200,6336,200C6240,200,6144,200,6048,200C5952,200,5856,200,5760,200C5664,200,5568,200,5472,200C5376,200,5280,200,5184,200C5088,200,4992,200,4896,200C4800,200,4704,200,4608,200C4512,200,4416,200,4320,200C4224,200,4128,200,4032,200C3936,200,3840,200,3744,200C3648,200,3552,200,3456,200C3360,200,3264,200,3168,200C3072,200,2976,200,2880,200C2784,200,2688,200,2592,200C2496,200,2400,200,2304,200C2208,200,2112,200,2016,200C1920,200,1824,200,1728,200C1632,200,1536,200,1440,200C1344,200,1248,200,1152,200C1056,200,960,200,864,200C768,200,672,200,576,200C480,200,384,200,288,200C192,200,96,200,48,200L0,200Z"></path>
  <defs>
    <linearGradient id="sw-gradient-1" x1="0" x2="0" y1="1" y2="0">
      <stop stop-color="rgba(226, 232, 240, 1)" offset="0%"></stop>
      <stop stop-color="rgba(226, 232, 240, 0.33)" offset="100%"></stop>
    </linearGradient>
  </defs>
  <path style="transform:translate(0, 50px); opacity:0.9" fill="url(#sw-gradient-1)" d="M0,120L48,120C96,120,192,120,288,100C384,80,480,40,576,46.7C672,53,768,107,864,116.7C960,127,1056,93,1152,86.7C1248,80,1344,100,1440,110C1536,120,1632,120,1728,123.3C1824,127,1920,133,2016,130C2112,127,2208,113,2304,110C2400,107,2496,113,2592,120C2688,127,2784,133,2880,130C2976,127,3072,113,3168,113.3C3264,113,3360,127,3456,120C3552,113,3648,87,3744,76.7C3840,67,3936,73,4032,70C4128,67,4224,53,4320,46.7C4416,40,4512,40,4608,46.7C4704,53,4800,67,4896,73.3C4992,80,5088,80,5184,86.7C5280,93,5376,107,5472,123.3C5568,140,5664,160,5760,156.7C5856,153,5952,127,6048,96.7C6144,67,6240,33,6336,23.3C6432,13,6528,27,6624,33.3C6720,40,6816,40,6864,40L6912,40L6912,200L6864,200C6816,200,6720,200,6624,200C6528,200,6432,200,6336,200C6240,200,6144,200,6048,200C5952,200,5856,200,5760,200C5664,200,5568,200,5472,200C5376,200,5280,200,5184,200C5088,200,4992,200,4896,200C4800,200,4704,200,4608,200C4512,200,4416,200,4320,200C4224,200,4128,200,4032,200C3936,200,3840,200,3744,200C3648,200,3552,200,3456,200C3360,200,3264,200,3168,200C3072,200,2976,200,2880,200C2784,200,2688,200,2592,200C2496,200,2400,200,2304,200C2208,200,2112,200,2016,200C1920,200,1824,200,1728,200C1632,200,1536,200,1440,200C1344,200,1248,200,1152,200C1056,200,960,200,864,200C768,200,672,200,576,200C480,200,384,200,288,200C192,200,96,200,48,200L0,200Z"></path>
  <defs>
    <linearGradient id="sw-gradient-2" x1="0" x2="0" y1="1" y2="0">
      <stop stop-color="rgba(226, 232, 240, 1)" offset="0%"></stop>
      <stop stop-color="rgba(226, 232, 240, 0.41)" offset="100%"></stop>
    </linearGradient>
  </defs>
  <path style="transform:translate(0, 100px); opacity:0.8" fill="url(#sw-gradient-2)" d="M0,120L48,100C96,80,192,40,288,33.3C384,27,480,53,576,76.7C672,100,768,120,864,123.3C960,127,1056,113,1152,113.3C1248,113,1344,127,1440,116.7C1536,107,1632,73,1728,70C1824,67,1920,93,2016,86.7C2112,80,2208,40,2304,50C2400,60,2496,120,2592,120C2688,120,2784,60,2880,43.3C2976,27,3072,53,3168,83.3C3264,113,3360,147,3456,140C3552,133,3648,87,3744,56.7C3840,27,3936,13,4032,10C4128,7,4224,13,4320,26.7C4416,40,4512,60,4608,86.7C4704,113,4800,147,4896,156.7C4992,167,5088,153,5184,143.3C5280,133,5376,127,5472,130C5568,133,5664,147,5760,126.7C5856,107,5952,53,6048,53.3C6144,53,6240,107,6336,110C6432,113,6528,67,6624,50C6720,33,6816,47,6864,53.3L6912,60L6912,200L6864,200C6816,200,6720,200,6624,200C6528,200,6432,200,6336,200C6240,200,6144,200,6048,200C5952,200,5856,200,5760,200C5664,200,5568,200,5472,200C5376,200,5280,200,5184,200C5088,200,4992,200,4896,200C4800,200,4704,200,4608,200C4512,200,4416,200,4320,200C4224,200,4128,200,4032,200C3936,200,3840,200,3744,200C3648,200,3552,200,3456,200C3360,200,3264,200,3168,200C3072,200,2976,200,2880,200C2784,200,2688,200,2592,200C2496,200,2400,200,2304,200C2208,200,2112,200,2016,200C1920,200,1824,200,1728,200C1632,200,1536,200,1440,200C1344,200,1248,200,1152,200C1056,200,960,200,864,200C768,200,672,200,576,200C480,200,384,200,288,200C192,200,96,200,48,200L0,200Z"></path>
</svg>