<svg id="wave" style="transform:rotate(0deg); transition: 0.3s" viewBox="0 0 1440 230" version="1.1" xmlns="http://www.w3.org/2000/svg">
  <defs>
    <linearGradient id="sw-gradient-0" x1="0" x2="0" y1="1" y2="0">
      <stop stop-color="rgba(241, 245, 249, 1)" offset="0%"></stop>
      <stop stop-color="rgba(241, 245, 249, 0.14901960784313725)" offset="100%"></stop>
    </linearGradient>
  </defs>
  <path style="transform:translate(0, 0px); opacity:1" fill="url(#sw-gradient-0)" d="M0,0L40,30.7C80,61,160,123,240,134.2C320,146,400,107,480,92C560,77,640,84,720,88.2C800,92,880,92,960,80.5C1040,69,1120,46,1200,30.7C1280,15,1360,8,1440,15.3C1520,23,1600,46,1680,80.5C1760,115,1840,161,1920,161C2000,161,2080,115,2160,84.3C2240,54,2320,38,2400,53.7C2480,69,2560,115,2640,122.7C2720,130,2800,100,2880,99.7C2960,100,3040,130,3120,126.5C3200,123,3280,84,3360,80.5C3440,77,3520,107,3600,130.3C3680,153,3760,169,3840,157.2C3920,146,4000,107,4080,76.7C4160,46,4240,23,4320,38.3C4400,54,4480,107,4560,130.3C4640,153,4720,146,4800,138C4880,130,4960,123,5040,126.5C5120,130,5200,146,5280,153.3C5360,161,5440,161,5520,157.2C5600,153,5680,146,5720,141.8L5760,138L5760,230L5720,230C5680,230,5600,230,5520,230C5440,230,5360,230,5280,230C5200,230,5120,230,5040,230C4960,230,4880,230,4800,230C4720,230,4640,230,4560,230C4480,230,4400,230,4320,230C4240,230,4160,230,4080,230C4000,230,3920,230,3840,230C3760,230,3680,230,3600,230C3520,230,3440,230,3360,230C3280,230,3200,230,3120,230C3040,230,2960,230,2880,230C2800,230,2720,230,2640,230C2560,230,2480,230,2400,230C2320,230,2240,230,2160,230C2080,230,2000,230,1920,230C1840,230,1760,230,1680,230C1600,230,1520,230,1440,230C1360,230,1280,230,1200,230C1120,230,1040,230,960,230C880,230,800,230,720,230C640,230,560,230,480,230C400,230,320,230,240,230C160,230,80,230,40,230L0,230Z"></path>
  <defs>
    <linearGradient id="sw-gradient-1" x1="0" x2="0" y1="1" y2="0">
      <stop stop-color="rgba(241, 245, 249, 1)" offset="0%"></stop>
      <stop stop-color="rgba(241, 245, 249, 0.35)" offset="100%"></stop>
    </linearGradient>
  </defs>
  <path style="transform:translate(0, 50px); opacity:0.9" fill="url(#sw-gradient-1)" d="M0,92L40,88.2C80,84,160,77,240,69C320,61,400,54,480,42.2C560,31,640,15,720,15.3C800,15,880,31,960,46C1040,61,1120,77,1200,80.5C1280,84,1360,77,1440,76.7C1520,77,1600,84,1680,99.7C1760,115,1840,138,1920,145.7C2000,153,2080,146,2160,149.5C2240,153,2320,169,2400,157.2C2480,146,2560,107,2640,103.5C2720,100,2800,130,2880,122.7C2960,115,3040,69,3120,61.3C3200,54,3280,84,3360,88.2C3440,92,3520,69,3600,49.8C3680,31,3760,15,3840,23C3920,31,4000,61,4080,65.2C4160,69,4240,46,4320,49.8C4400,54,4480,84,4560,107.3C4640,130,4720,146,4800,153.3C4880,161,4960,161,5040,138C5120,115,5200,69,5280,42.2C5360,15,5440,8,5520,26.8C5600,46,5680,92,5720,115L5760,138L5760,230L5720,230C5680,230,5600,230,5520,230C5440,230,5360,230,5280,230C5200,230,5120,230,5040,230C4960,230,4880,230,4800,230C4720,230,4640,230,4560,230C4480,230,4400,230,4320,230C4240,230,4160,230,4080,230C4000,230,3920,230,3840,230C3760,230,3680,230,3600,230C3520,230,3440,230,3360,230C3280,230,3200,230,3120,230C3040,230,2960,230,2880,230C2800,230,2720,230,2640,230C2560,230,2480,230,2400,230C2320,230,2240,230,2160,230C2080,230,2000,230,1920,230C1840,230,1760,230,1680,230C1600,230,1520,230,1440,230C1360,230,1280,230,1200,230C1120,230,1040,230,960,230C880,230,800,230,720,230C640,230,560,230,480,230C400,230,320,230,240,230C160,230,80,230,40,230L0,230Z"></path>
  <defs>
    <linearGradient id="sw-gradient-2" x1="0" x2="0" y1="1" y2="0">
      <stop stop-color="rgba(241, 245, 249, 1)" offset="0%"></stop>
      <stop stop-color="rgba(241, 245, 249, 0.55)" offset="100%"></stop>
    </linearGradient>
  </defs>
  <path style="transform:translate(0, 100px); opacity:0.8" fill="url(#sw-gradient-2)" d="M0,92L40,107.3C80,123,160,153,240,141.8C320,130,400,77,480,65.2C560,54,640,84,720,115C800,146,880,176,960,161C1040,146,1120,84,1200,69C1280,54,1360,84,1440,95.8C1520,107,1600,100,1680,99.7C1760,100,1840,107,1920,126.5C2000,146,2080,176,2160,164.8C2240,153,2320,100,2400,80.5C2480,61,2560,77,2640,76.7C2720,77,2800,61,2880,80.5C2960,100,3040,153,3120,153.3C3200,153,3280,100,3360,88.2C3440,77,3520,107,3600,130.3C3680,153,3760,169,3840,161C3920,153,4000,123,4080,126.5C4160,130,4240,169,4320,153.3C4400,138,4480,69,4560,65.2C4640,61,4720,123,4800,149.5C4880,176,4960,169,5040,168.7C5120,169,5200,176,5280,172.5C5360,169,5440,153,5520,130.3C5600,107,5680,77,5720,61.3L5760,46L5760,230L5720,230C5680,230,5600,230,5520,230C5440,230,5360,230,5280,230C5200,230,5120,230,5040,230C4960,230,4880,230,4800,230C4720,230,4640,230,4560,230C4480,230,4400,230,4320,230C4240,230,4160,230,4080,230C4000,230,3920,230,3840,230C3760,230,3680,230,3600,230C3520,230,3440,230,3360,230C3280,230,3200,230,3120,230C3040,230,2960,230,2880,230C2800,230,2720,230,2640,230C2560,230,2480,230,2400,230C2320,230,2240,230,2160,230C2080,230,2000,230,1920,230C1840,230,1760,230,1680,230C1600,230,1520,230,1440,230C1360,230,1280,230,1200,230C1120,230,1040,230,960,230C880,230,800,230,720,230C640,230,560,230,480,230C400,230,320,230,240,230C160,230,80,230,40,230L0,230Z"></path>
</svg>