<svg id="wave" style="transform:rotate(0deg); transition: 0.3s" viewBox="0 0 1440 140" version="1.1" xmlns="http://www.w3.org/2000/svg">
  <defs>
    <linearGradient id="sw-gradient-0" x1="0" x2="0" y1="1" y2="0">
      <stop stop-color="rgba(226, 232, 240, 1)" offset="0%"></stop>
      <stop stop-color="rgba(226, 232, 240, 0.21)" offset="100%"></stop>
    </linearGradient>
  </defs>
  <path style="transform:translate(0, 0px); opacity:1" fill="url(#sw-gradient-0)" d="M0,98L40,84C80,70,160,42,240,39.7C320,37,400,61,480,70C560,79,640,75,720,60.7C800,47,880,23,960,32.7C1040,42,1120,84,1200,95.7C1280,107,1360,89,1440,79.3C1520,70,1600,70,1680,77C1760,84,1840,98,1920,107.3C2000,117,2080,121,2160,112C2240,103,2320,79,2400,79.3C2480,79,2560,103,2640,93.3C2720,84,2800,42,2880,32.7C2960,23,3040,47,3120,60.7C3200,75,3280,79,3360,84C3440,89,3520,93,3600,91C3680,89,3760,79,3840,72.3C3920,65,4000,61,4080,58.3C4160,56,4240,56,4320,56C4400,56,4480,56,4560,67.7C4640,79,4720,103,4800,109.7C4880,117,4960,107,5040,98C5120,89,5200,79,5280,74.7C5360,70,5440,70,5520,67.7C5600,65,5680,61,5720,58.3L5760,56L5760,140L5720,140C5680,140,5600,140,5520,140C5440,140,5360,140,5280,140C5200,140,5120,140,5040,140C4960,140,4880,140,4800,140C4720,140,4640,140,4560,140C4480,140,4400,140,4320,140C4240,140,4160,140,4080,140C4000,140,3920,140,3840,140C3760,140,3680,140,3600,140C3520,140,3440,140,3360,140C3280,140,3200,140,3120,140C3040,140,2960,140,2880,140C2800,140,2720,140,2640,140C2560,140,2480,140,2400,140C2320,140,2240,140,2160,140C2080,140,2000,140,1920,140C1840,140,1760,140,1680,140C1600,140,1520,140,1440,140C1360,140,1280,140,1200,140C1120,140,1040,140,960,140C880,140,800,140,720,140C640,140,560,140,480,140C400,140,320,140,240,140C160,140,80,140,40,140L0,140Z"></path>
  <defs>
    <linearGradient id="sw-gradient-1" x1="0" x2="0" y1="1" y2="0">
      <stop stop-color="rgba(226, 232, 240, 1)" offset="0%"></stop>
      <stop stop-color="rgba(226, 232, 240, 0.4)" offset="100%"></stop>
    </linearGradient>
  </defs>
  <path style="transform:translate(0, 50px); opacity:0.9" fill="url(#sw-gradient-1)" d="M0,28L40,28C80,28,160,28,240,37.3C320,47,400,65,480,74.7C560,84,640,84,720,88.7C800,93,880,103,960,98C1040,93,1120,75,1200,60.7C1280,47,1360,37,1440,49C1520,61,1600,93,1680,105C1760,117,1840,107,1920,86.3C2000,65,2080,33,2160,18.7C2240,5,2320,9,2400,28C2480,47,2560,79,2640,95.7C2720,112,2800,112,2880,95.7C2960,79,3040,47,3120,49C3200,51,3280,89,3360,100.3C3440,112,3520,98,3600,79.3C3680,61,3760,37,3840,44.3C3920,51,4000,89,4080,102.7C4160,117,4240,107,4320,91C4400,75,4480,51,4560,39.7C4640,28,4720,28,4800,23.3C4880,19,4960,9,5040,18.7C5120,28,5200,56,5280,56C5360,56,5440,28,5520,16.3C5600,5,5680,9,5720,11.7L5760,14L5760,140L5720,140C5680,140,5600,140,5520,140C5440,140,5360,140,5280,140C5200,140,5120,140,5040,140C4960,140,4880,140,4800,140C4720,140,4640,140,4560,140C4480,140,4400,140,4320,140C4240,140,4160,140,4080,140C4000,140,3920,140,3840,140C3760,140,3680,140,3600,140C3520,140,3440,140,3360,140C3280,140,3200,140,3120,140C3040,140,2960,140,2880,140C2800,140,2720,140,2640,140C2560,140,2480,140,2400,140C2320,140,2240,140,2160,140C2080,140,2000,140,1920,140C1840,140,1760,140,1680,140C1600,140,1520,140,1440,140C1360,140,1280,140,1200,140C1120,140,1040,140,960,140C880,140,800,140,720,140C640,140,560,140,480,140C400,140,320,140,240,140C160,140,80,140,40,140L0,140Z"></path>
</svg>